# xmcd
#
# Track frame offsets:
#	151
#	18270
#	35734
#	49527
#	67841
#
# Disc length: 1273 seconds
#
# Revision: 0
# Processed by: cddbd v1.5.2PL0 Copyright (c) Steve Scherf et al.
# Submitted via: EasyCDDAExtractor 15.3.0.1
#
DISCID=3504f705
DTITLE=Various Artist - Acid Blues - The New Style Vol. 1
DYEAR=2000
DGENRE=1
TTITLE0=Carter Brothers - W/O Love
TTITLE1=Mountain Con - Goodbye to Cadillac
TTITLE2=Slo-Mo - Wicked Son
TTITLE3=Jon Brown - Baby What's Wrong With You?
TTITLE4=Acid Blues - Tom Rothrock Interview
EXTD=
EXTT0=
EXTT1=
EXTT2=
EXTT3=
EXTT4=
PLAYORDER=
